<?xml version="1.0" standalone="no"?>
<!DOCTYPE svg PUBLIC "-//W3C//DTD SVG 20010904//EN"
 "http://www.w3.org/TR/2001/REC-SVG-20010904/DTD/svg10.dtd">
<svg version="1.0" xmlns="http://www.w3.org/2000/svg"
 width="256.000000pt" height="256.000000pt" viewBox="0 0 256.000000 256.000000"
 preserveAspectRatio="xMidYMid meet">

<g transform="translate(0.000000,256.000000) scale(0.100000,-0.100000)"
fill="cyan" stroke="none">
<path d="M496 2098 c-3 -10 -8 -25 -11 -34 -3 -9 -30 -122 -61 -252 -30 -131
-75 -319 -100 -420 -24 -101 -44 -190 -44 -198 0 -11 16 -14 70 -14 39 0 70 3
70 8 0 4 34 149 75 322 l75 315 -34 145 c-19 83 -37 138 -40 128z"/>
<path d="M1513 1953 c9 -2 25 -2 35 0 9 3 1 5 -18 5 -19 0 -27 -2 -17 -5z"/>
<path d="M2001 1743 l1 -128 18 57 c21 69 15 198 -10 198 -6 0 -10 -50 -9
-127z"/>
<path d="M2127 1843 c-7 -12 -42 -136 -76 -265 -24 -89 -31 -136 -30 -200 1
-45 4 -74 6 -64 3 11 11 26 19 34 8 7 14 23 14 35 0 31 54 250 79 326 23 66
25 132 4 138 -6 2 -13 0 -16 -4z"/>
<path d="M1353 1826 c-5 -10 -21 -23 -34 -30 l-24 -12 -5 -419 c-3 -231 -7
-424 -9 -430 -6 -17 -1 -59 9 -75 25 -38 30 26 30 422 l0 408 28 17 c15 10 30
22 34 28 12 17 9 70 -6 90 -12 17 -14 17 -23 1z"/>
<path d="M1508 1813 c-8 -18 -13 -125 -16 -303 -4 -291 2 -428 21 -454 9 -13
12 59 12 311 0 293 2 332 18 362 20 39 21 64 7 92 -15 27 -28 24 -42 -8z"/>
<path d="M1608 1815 c12 -53 7 -633 -6 -715 -16 -94 -49 -164 -79 -168 -27 -4
-28 -13 -8 -52 33 -63 80 -28 104 75 43 191 41 759 -4 858 l-14 32 7 -30z"/>
<path d="M1793 1828 c-31 -38 -38 -105 -38 -403 0 -246 3 -306 15 -333 14 -30
15 -8 16 265 0 233 4 308 15 342 18 57 34 62 53 17 19 -46 33 -46 42 0 7 37
-15 132 -24 104 -23 -69 -22 -69 -46 -22 -17 34 -25 41 -33 30z"/>
<path d="M1003 1818 c-4 -7 -9 -56 -11 -109 -3 -74 -1 -103 11 -125 l16 -29 1
55 c0 30 5 71 10 90 11 37 4 130 -10 130 -5 0 -12 -6 -17 -12z"/>
<path d="M1076 1769 c-3 -30 -6 -70 -6 -89 0 -41 16 -62 31 -40 12 18 6 139
-8 165 -9 15 -12 9 -17 -36z"/>
<path d="M1214 1784 c3 -9 6 -26 6 -39 0 -12 7 -25 15 -29 12 -4 15 4 15 39 0
39 -3 45 -21 45 -15 0 -19 -4 -15 -16z"/>
<path d="M556 1448 c-26 -112 -61 -255 -78 -318 -37 -142 -98 -382 -98 -386 0
-2 34 -4 75 -4 41 0 75 2 75 5 0 3 33 144 74 314 l75 308 -30 122 c-16 68 -29
132 -29 142 0 10 -4 19 -8 19 -4 0 -30 -91 -56 -202z"/>
<path d="M980 1477 c0 -4 12 -30 26 -58 28 -56 44 -61 21 -8 -16 36 -46 79
-47 66z"/>
<path d="M1095 1227 c0 -132 -3 -172 -18 -215 -22 -62 -57 -92 -83 -71 -15 12
-16 11 -9 -11 17 -56 35 -80 60 -80 33 0 52 32 71 121 18 86 14 293 -8 371
-12 45 -13 37 -13 -115z"/>
<path d="M2072 1265 c0 -11 6 -42 14 -70 l13 -50 -5 49 c-6 54 -23 108 -22 71z"/>
<path d="M715 1208 c-2 -7 -16 -65 -31 -128 -27 -118 -97 -399 -159 -643 -19
-76 -35 -142 -35 -148 0 -5 33 -9 74 -9 l73 0 42 173 c138 575 179 753 174
760 -8 13 -133 8 -138 -5z"/>
<path d="M1845 1200 c-3 -5 -1 -10 4 -10 6 0 11 5 11 10 0 6 -2 10 -4 10 -3 0
-8 -4 -11 -10z"/>
<path d="M2027 1150 c-3 -8 -8 -37 -11 -65 -4 -27 -11 -72 -17 -100 -16 -83
-7 -156 18 -132 9 9 21 99 22 160 1 34 4 46 12 41 8 -5 10 0 6 17 -20 80 -25
93 -30 79z"/>
<path d="M985 1103 c9 -50 23 -75 38 -66 8 5 8 8 -1 11 -7 2 -12 16 -12 32 0
35 -9 60 -22 60 -6 0 -8 -14 -3 -37z"/>
<path d="M1875 1064 c-14 -108 -60 -163 -104 -121 -11 10 -12 7 -6 -13 4 -14
12 -31 18 -38 14 -17 77 -43 88 -37 16 11 29 81 29 160 0 102 -15 131 -25 49z"/>
<path d="M2136 970 c3 -41 10 -79 15 -84 14 -15 11 52 -6 109 l-15 50 6 -75z"/>
<path d="M2097 929 c4 -13 8 -18 11 -10 2 7 -1 18 -6 23 -8 8 -9 4 -5 -13z"/>
<path d="M1290 650 c0 -5 5 -10 10 -10 6 0 10 5 10 10 0 6 -4 10 -10 10 -5 0
-10 -4 -10 -10z"/>
<path d="M1415 649 c-11 -17 0 -20 21 -4 17 13 17 14 2 15 -9 0 -20 -5 -23
-11z"/>
<path d="M1480 649 c0 -5 5 -7 10 -4 6 3 10 8 10 11 0 2 -4 4 -10 4 -5 0 -10
-5 -10 -11z"/>
<path d="M1550 649 c0 -5 5 -7 10 -4 6 3 10 8 10 11 0 2 -4 4 -10 4 -5 0 -10
-5 -10 -11z"/>
<path d="M1655 650 c3 -5 8 -10 11 -10 2 0 4 5 4 10 0 6 -5 10 -11 10 -5 0 -7
-4 -4 -10z"/>
<path d="M1780 656 c0 -2 6 -9 14 -15 10 -9 16 -8 26 4 11 13 8 15 -14 15 -14
0 -26 -2 -26 -4z"/>
<path d="M1412 555 c0 -16 2 -22 5 -12 2 9 2 23 0 30 -3 6 -5 -1 -5 -18z"/>
<path d="M1733 573 c-31 -6 -29 -28 2 -28 17 0 25 6 25 18 0 9 -1 16 -2 16 -2
-1 -13 -4 -25 -6z"/>
</g>
</svg>
