<?xml version="1.0" standalone="no"?>
<!DOCTYPE svg PUBLIC "-//W3C//DTD SVG 20010904//EN"
 "http://www.w3.org/TR/2001/REC-SVG-20010904/DTD/svg10.dtd">
<svg version="1.0" xmlns="http://www.w3.org/2000/svg"
 width="300.000000pt" height="63.000000pt" viewBox="0 0 300.000000 63.000000"
 preserveAspectRatio="xMidYMid meet">
<metadata>
Created by potrace 1.10, written by Peter Selinger 2001-2011
</metadata>
<g transform="translate(0.000000,63.000000) scale(0.100000,-0.100000)"
fill="#ffae42" stroke="none">
<path d="M36 568 c-16 -21 -22 -36 -16 -42 6 -6 14 -4 22 7 11 14 13 -29 13
-230 l0 -248 245 -5 c135 -3 239 -9 233 -13 -17 -11 -17 -27 0 -27 14 1 67 45
67 57 0 12 -70 57 -77 49 -4 -3 -1 -12 5 -18 7 -7 12 -14 12 -17 0 -4 -103 -5
-230 -3 l-230 3 0 237 c1 166 4 232 11 220 11 -20 29 -24 29 -8 0 14 -41 70
-51 70 -4 0 -19 -15 -33 -32z"/>
<path d="M402 589 c3 -8 11 -13 17 -11 18 4 13 -15 -6 -23 -50 -19 -293 -169
-293 -181 0 -8 2 -14 4 -14 4 0 268 154 303 177 24 16 24 16 17 -10 -10 -43
12 -32 30 14 9 23 15 44 12 46 -2 3 -23 7 -47 10 -33 5 -41 3 -37 -8z"/>
<path d="M390 291 l0 -191 50 0 50 0 2 175 c0 96 1 181 2 188 1 8 -17 13 -51
15 l-53 3 0 -190z m70 0 c0 -118 -3 -150 -14 -154 -8 -3 -17 -3 -20 0 -8 9 -8
288 1 296 3 4 12 7 20 7 10 0 13 -31 13 -149z"/>
<path d="M250 250 l0 -150 55 0 55 0 0 150 0 150 -55 0 -55 0 0 -150z m68 0
c3 -103 -7 -143 -28 -110 -11 17 -14 203 -3 214 20 19 28 -9 31 -104z"/>
<path d="M732 374 c-48 -33 -21 -92 50 -109 37 -9 61 -39 53 -64 -8 -26 -46
-36 -85 -23 -24 9 -30 8 -30 -2 0 -30 97 -37 122 -8 43 48 23 93 -53 121 -31
12 -45 23 -47 38 -5 31 30 48 70 34 39 -14 38 -14 38 3 0 27 -83 35 -118 10z"/>
<path d="M923 383 c-7 -3 -13 -16 -13 -29 0 -15 -6 -24 -15 -24 -8 0 -15 -4
-15 -10 0 -5 7 -10 15 -10 12 0 15 -14 15 -69 0 -48 4 -72 15 -81 17 -14 65
-6 65 11 0 7 -10 9 -25 5 -25 -6 -25 -6 -25 64 0 68 1 70 25 70 14 0 25 5 25
10 0 6 -11 10 -24 10 -20 0 -25 6 -28 28 -2 18 -8 27 -15 25z"/>
<path d="M1360 385 c-1 -3 -1 -56 -1 -117 0 -87 3 -113 13 -113 9 0 12 10 10
32 -5 49 17 51 55 4 19 -22 41 -41 49 -41 22 0 16 12 -26 55 -22 22 -40 43
-40 46 0 4 16 19 35 33 19 15 35 31 35 37 0 20 -26 7 -68 -33 l-44 -43 4 73
c2 53 0 72 -9 72 -7 0 -13 -2 -13 -5z"/>
<path d="M1634 367 c-27 -23 -29 -30 -29 -95 0 -61 3 -74 24 -96 33 -35 92
-36 125 -3 29 29 41 92 27 145 -14 49 -29 62 -79 69 -31 4 -44 0 -68 -20z m97
-16 c21 -16 24 -28 24 -81 0 -53 -3 -65 -24 -81 -53 -43 -101 -6 -101 78 0 44
5 59 25 78 29 30 45 31 76 6z"/>
<path d="M2288 380 c-56 -34 -41 -81 38 -116 43 -19 54 -29 54 -47 0 -43 -45
-61 -90 -37 -13 7 -21 7 -25 -1 -10 -16 -1 -21 49 -26 58 -7 96 15 96 55 0 39
-17 58 -71 81 -52 21 -62 32 -53 54 7 21 39 27 76 16 35 -10 48 -5 31 12 -15
15 -85 21 -105 9z"/>
<path d="M2700 270 c0 -100 3 -120 15 -120 12 0 15 14 15 70 0 65 2 71 24 82
44 19 55 6 58 -73 2 -47 7 -74 16 -77 9 -3 12 16 12 71 0 59 -4 77 -18 90 -21
19 -45 21 -73 7 -17 -10 -19 -7 -19 30 0 29 -4 40 -15 40 -12 0 -15 -20 -15
-120z"/>
<path d="M2903 370 c-6 -14 -9 -28 -6 -32 2 -5 -3 -8 -11 -8 -9 0 -16 -4 -16
-10 0 -5 5 -10 10 -10 6 0 10 -28 10 -63 0 -80 14 -102 59 -92 18 4 30 12 28
18 -3 7 -11 11 -18 9 -8 -2 -18 -4 -24 -5 -6 -1 -11 28 -13 66 -3 66 -3 67 23
67 14 0 25 5 25 10 0 6 -11 10 -24 10 -20 0 -25 6 -28 33 l-4 32 -11 -25z"/>
<path d="M110 215 l0 -115 55 0 55 0 0 115 0 115 -55 0 -55 0 0 -115z m70 -5
c0 -75 -11 -103 -26 -68 -12 27 -12 128 0 147 15 24 26 -9 26 -79z"/>
<path d="M1046 309 c-22 -17 -26 -28 -26 -70 0 -57 24 -89 68 -89 62 0 98 66
72 131 -21 49 -71 62 -114 28z m72 -15 c43 -30 22 -124 -28 -124 -45 0 -66 84
-30 120 24 24 29 24 58 4z"/>
<path d="M1225 305 c-36 -35 -35 -105 1 -134 15 -12 33 -21 40 -21 25 0 65 20
59 30 -4 7 -13 7 -26 -1 -28 -14 -58 -2 -70 29 -23 59 22 118 70 93 17 -9 21
-9 21 3 0 33 -62 34 -95 1z"/>
<path d="M1810 326 c0 -24 65 -176 74 -173 8 3 76 157 76 174 0 2 -6 3 -14 3
-9 0 -24 -28 -39 -72 l-24 -73 -23 73 c-14 40 -30 72 -37 72 -7 0 -13 -2 -13
-4z"/>
<path d="M2005 305 c-68 -67 5 -188 86 -144 11 5 17 14 14 20 -4 5 -14 5 -27
-2 -30 -16 -68 3 -68 36 0 24 3 25 56 25 l56 0 -7 28 c-16 63 -67 81 -110 37z
m73 -7 c25 -25 14 -43 -28 -44 -32 -1 -40 2 -40 17 0 31 46 49 68 27z"/>
<path d="M2150 240 c0 -72 3 -90 15 -90 11 0 15 17 17 72 3 64 6 73 23 76 30
6 41 20 21 28 -10 4 -25 -1 -36 -11 -18 -16 -20 -17 -20 -2 0 10 -4 17 -10 17
-6 0 -10 -37 -10 -90z"/>
<path d="M2450 240 c0 -69 3 -91 13 -87 8 2 12 29 12 87 0 58 -4 85 -12 88
-10 3 -13 -19 -13 -88z"/>
<path d="M2547 319 c-19 -11 -23 -64 -6 -75 8 -5 7 -10 -4 -16 -12 -6 -14 -15
-8 -31 5 -13 4 -29 -2 -38 -24 -39 26 -76 88 -65 43 8 64 41 46 75 -10 17 -21
21 -61 21 -63 0 -70 24 -10 34 41 6 67 35 56 62 -3 8 1 14 9 14 8 0 15 6 15
13 0 16 -97 20 -123 6z m71 -38 c4 -25 -11 -41 -40 -41 -23 0 -36 49 -17 61
24 16 54 6 57 -20z m22 -136 c0 -23 -4 -25 -44 -25 -46 0 -62 11 -52 35 4 10
20 15 51 15 41 0 45 -2 45 -25z"/>
</g>
</svg>
